# This file uses centimeters as units for non-parametric coordinates.

mtllib barricade_low.mtl
g default
v -18.990589 0.148162 98.070926
v 13.601050 0.148162 98.070926
v -18.990589 2.536284 98.070926
v 13.601050 2.536284 98.070926
v -18.990589 2.536284 -76.509311
v 13.601050 2.536284 -76.509311
v -18.990589 0.148162 -76.509311
v 13.601050 0.148162 -76.509311
v -10.186032 20.405128 98.070926
v 4.796493 20.405128 98.070926
v 4.796493 20.405128 -76.509311
v -10.186032 20.405128 -76.509311
v -10.186032 81.177439 98.070926
v 4.796493 81.177439 98.070926
v 4.796493 81.177439 -76.509311
v -10.186032 81.177439 -76.509311
vt 0.026716 0.405869
vt 0.026948 0.217556
vt 0.040746 0.217573
vt 0.040514 0.405886
vt 0.026603 0.497653
vt 0.026709 0.411085
vt 0.842684 0.412089
vt 0.842578 0.498657
vt 0.481340 0.212645
vt 0.481571 0.024332
vt 0.495369 0.024349
vt 0.495138 0.212662
vt 0.026603 0.523600
vt 0.827693 0.523600
vt 0.827693 0.536811
vt 0.026603 0.536811
vt 0.827693 0.523600
vt 0.026603 0.523600
vt 0.026603 0.536811
vt 0.827693 0.536811
vt 0.143929 0.268572
vt 0.143823 0.355140
vt 0.827693 0.635663
vt 0.026603 0.635663
vt 0.378157 0.161646
vt 0.378263 0.075078
vt 0.026603 0.635663
vt 0.827693 0.635663
vt 0.495069 0.269005
vt 0.494962 0.355573
vt 0.827693 0.971860
vt 0.026603 0.971860
vt 0.027017 0.161214
vt 0.027124 0.074645
vt 0.026603 0.971860
vt 0.827693 0.971860
vn 0.000000 0.000000 1.000000
vn 0.000000 0.000000 1.000000
vn 0.000000 0.000000 1.000000
vn 0.000000 0.000000 1.000000
vn 0.000000 1.000000 0.000000
vn 0.000000 1.000000 0.000000
vn 0.000000 1.000000 0.000000
vn 0.000000 1.000000 0.000000
vn 0.000000 0.000000 -1.000000
vn 0.000000 0.000000 -1.000000
vn 0.000000 0.000000 -1.000000
vn 0.000000 0.000000 -1.000000
vn 1.000000 0.000000 0.000000
vn 1.000000 0.000000 0.000000
vn 0.917117 0.398618 0.000000
vn 0.917117 0.398618 0.000000
vn -1.000000 0.000000 0.000000
vn -1.000000 0.000000 0.000000
vn -0.917117 0.398618 0.000000
vn -0.917117 0.398618 0.000000
vn 0.000000 0.000000 1.000000
vn 0.000000 0.000000 1.000000
vn 0.000000 0.000000 1.000000
vn 0.000000 0.000000 1.000000
vn 0.917117 0.398618 0.000000
vn 0.917117 0.398618 0.000000
vn 0.993791 0.111263 0.000000
vn 0.993791 0.111263 0.000000
vn 0.000000 0.000000 -1.000000
vn 0.000000 0.000000 -1.000000
vn 0.000000 0.000000 -1.000000
vn 0.000000 0.000000 -1.000000
vn -0.917117 0.398618 0.000000
vn -0.917117 0.398618 0.000000
vn -0.993791 0.111263 0.000000
vn -0.993791 0.111263 0.000000
vn 0.000000 0.000000 1.000000
vn 0.000000 0.000000 1.000000
vn 0.000000 0.000000 1.000000
vn 0.000000 0.000000 1.000000
vn 0.993791 0.111263 0.000000
vn 0.993791 0.111263 0.000000
vn 1.000000 0.000000 0.000000
vn 1.000000 0.000000 0.000000
vn 0.000000 0.000000 -1.000000
vn 0.000000 0.000000 -1.000000
vn 0.000000 0.000000 -1.000000
vn 0.000000 0.000000 -1.000000
vn -0.993791 0.111263 0.000000
vn -0.993791 0.111263 0.000000
vn -1.000000 0.000000 0.000000
vn -1.000000 0.000000 0.000000
s off
g Barricade_low
usemtl barricade_low_initialShadingGroup
f 1/1/1 2/2/2 4/3/3 3/4/4
f 13/5/5 14/6/6 15/7/7 16/8/8
f 5/9/9 6/10/10 8/11/11 7/12/12
f 2/13/13 8/14/14 6/15/15 4/16/16
f 7/17/17 1/18/18 3/19/19 5/20/20
f 3/4/21 4/3/22 10/21/23 9/22/24
f 4/16/25 6/15/26 11/23/27 10/24/28
f 6/10/29 5/9/30 12/25/31 11/26/32
f 5/20/33 3/19/34 9/27/35 12/28/36
f 9/22/37 10/21/38 14/29/39 13/30/40
f 10/24/41 11/23/42 15/31/43 14/32/44
f 11/26/45 12/25/46 16/33/47 15/34/48
f 12/28/49 9/27/50 13/35/51 16/36/52
